<?xml version="1.0" encoding="utf-8" standalone="no"?>
<!DOCTYPE svg PUBLIC "-//W3C//DTD SVG 1.1//EN"
  "http://www.w3.org/Graphics/SVG/1.1/DTD/svg11.dtd">
<svg xmlns:xlink="http://www.w3.org/1999/xlink" width="288pt" height="288pt" viewBox="0 0 288 288" xmlns="http://www.w3.org/2000/svg" version="1.1">
 <metadata>
  <rdf:RDF xmlns:dc="http://purl.org/dc/elements/1.1/" xmlns:cc="http://creativecommons.org/ns#" xmlns:rdf="http://www.w3.org/1999/02/22-rdf-syntax-ns#">
   <cc:Work>
    <dc:type rdf:resource="http://purl.org/dc/dcmitype/StillImage"/>
    <dc:date>2025-05-06T09:04:02.123307</dc:date>
    <dc:format>image/svg+xml</dc:format>
    <dc:creator>
     <cc:Agent>
      <dc:title>Matplotlib v3.7.2, https://matplotlib.org/</dc:title>
     </cc:Agent>
    </dc:creator>
   </cc:Work>
  </rdf:RDF>
 </metadata>
 <defs>
  <style type="text/css">*{stroke-linejoin: round; stroke-linecap: butt}</style>
 </defs>
 <g id="figure_1">
  <g id="patch_1">
   <path d="M 0 288 
L 288 288 
L 288 0 
L 0 0 
z
" style="fill: #ffffff"/>
  </g>
  <g id="axes_1">
   <g id="patch_2">
    <path d="M 55.55 242.44 
L 266.715 242.44 
L 266.715 15.12 
L 55.55 15.12 
z
" style="fill: #ffffff"/>
   </g>
   <g id="patch_3">
    <path d="M 55.55 242.44 
L 58.482847 242.44 
L 58.482847 242.44 
L 55.55 242.44 
z
" clip-path="url(#p8815ab7af4)" style="fill: #4be4aa; fill-opacity: 0.5; stroke: #000000; stroke-width: 0.281818; stroke-linejoin: miter"/>
   </g>
   <g id="patch_4">
    <path d="M 58.482847 242.44 
L 61.415694 242.44 
L 61.415694 242.44 
L 58.482847 242.44 
z
" clip-path="url(#p8815ab7af4)" style="fill: #4be4aa; fill-opacity: 0.5; stroke: #000000; stroke-width: 0.281818; stroke-linejoin: miter"/>
   </g>
   <g id="patch_5">
    <path d="M 61.415694 242.44 
L 64.348542 242.44 
L 64.348542 242.44 
L 61.415694 242.44 
z
" clip-path="url(#p8815ab7af4)" style="fill: #4be4aa; fill-opacity: 0.5; stroke: #000000; stroke-width: 0.281818; stroke-linejoin: miter"/>
   </g>
   <g id="patch_6">
    <path d="M 64.348542 242.44 
L 67.281389 242.44 
L 67.281389 242.44 
L 64.348542 242.44 
z
" clip-path="url(#p8815ab7af4)" style="fill: #4be4aa; fill-opacity: 0.5; stroke: #000000; stroke-width: 0.281818; stroke-linejoin: miter"/>
   </g>
   <g id="patch_7">
    <path d="M 67.281389 242.44 
L 70.214236 242.44 
L 70.214236 242.44 
L 67.281389 242.44 
z
" clip-path="url(#p8815ab7af4)" style="fill: #4be4aa; fill-opacity: 0.5; stroke: #000000; stroke-width: 0.281818; stroke-linejoin: miter"/>
   </g>
   <g id="patch_8">
    <path d="M 70.214236 242.44 
L 73.147083 242.44 
L 73.147083 240.1668 
L 70.214236 240.1668 
z
" clip-path="url(#p8815ab7af4)" style="fill: #4be4aa; fill-opacity: 0.5; stroke: #000000; stroke-width: 0.281818; stroke-linejoin: miter"/>
   </g>
   <g id="patch_9">
    <path d="M 73.147083 242.44 
L 76.079931 242.44 
L 76.079931 240.1668 
L 73.147083 240.1668 
z
" clip-path="url(#p8815ab7af4)" style="fill: #4be4aa; fill-opacity: 0.5; stroke: #000000; stroke-width: 0.281818; stroke-linejoin: miter"/>
   </g>
   <g id="patch_10">
    <path d="M 76.079931 242.44 
L 79.012778 242.44 
L 79.012778 242.44 
L 76.079931 242.44 
z
" clip-path="url(#p8815ab7af4)" style="fill: #4be4aa; fill-opacity: 0.5; stroke: #000000; stroke-width: 0.281818; stroke-linejoin: miter"/>
   </g>
   <g id="patch_11">
    <path d="M 79.012778 242.44 
L 81.945625 242.44 
L 81.945625 235.6204 
L 79.012778 235.6204 
z
" clip-path="url(#p8815ab7af4)" style="fill: #4be4aa; fill-opacity: 0.5; stroke: #000000; stroke-width: 0.281818; stroke-linejoin: miter"/>
   </g>
   <g id="patch_12">
    <path d="M 81.945625 242.44 
L 84.878472 242.44 
L 84.878472 217.4348 
L 81.945625 217.4348 
z
" clip-path="url(#p8815ab7af4)" style="fill: #4be4aa; fill-opacity: 0.5; stroke: #000000; stroke-width: 0.281818; stroke-linejoin: miter"/>
   </g>
   <g id="patch_13">
    <path d="M 84.878472 242.44 
L 87.811319 242.44 
L 87.811319 185.61 
L 84.878472 185.61 
z
" clip-path="url(#p8815ab7af4)" style="fill: #4be4aa; fill-opacity: 0.5; stroke: #000000; stroke-width: 0.281818; stroke-linejoin: miter"/>
   </g>
   <g id="patch_14">
    <path d="M 87.811319 242.44 
L 90.744167 242.44 
L 90.744167 199.2492 
L 87.811319 199.2492 
z
" clip-path="url(#p8815ab7af4)" style="fill: #4be4aa; fill-opacity: 0.5; stroke: #000000; stroke-width: 0.281818; stroke-linejoin: miter"/>
   </g>
   <g id="patch_15">
    <path d="M 90.744167 242.44 
L 93.677014 242.44 
L 93.677014 144.6924 
L 90.744167 144.6924 
z
" clip-path="url(#p8815ab7af4)" style="fill: #4be4aa; fill-opacity: 0.5; stroke: #000000; stroke-width: 0.281818; stroke-linejoin: miter"/>
   </g>
   <g id="patch_16">
    <path d="M 93.677014 242.44 
L 96.609861 242.44 
L 96.609861 158.3316 
L 93.677014 158.3316 
z
" clip-path="url(#p8815ab7af4)" style="fill: #4be4aa; fill-opacity: 0.5; stroke: #000000; stroke-width: 0.281818; stroke-linejoin: miter"/>
   </g>
   <g id="patch_17">
    <path d="M 96.609861 242.44 
L 99.542708 242.44 
L 99.542708 137.8728 
L 96.609861 137.8728 
z
" clip-path="url(#p8815ab7af4)" style="fill: #4be4aa; fill-opacity: 0.5; stroke: #000000; stroke-width: 0.281818; stroke-linejoin: miter"/>
   </g>
   <g id="patch_18">
    <path d="M 99.542708 242.44 
L 102.475556 242.44 
L 102.475556 174.244 
L 99.542708 174.244 
z
" clip-path="url(#p8815ab7af4)" style="fill: #4be4aa; fill-opacity: 0.5; stroke: #000000; stroke-width: 0.281818; stroke-linejoin: miter"/>
   </g>
   <g id="patch_19">
    <path d="M 102.475556 242.44 
L 105.408403 242.44 
L 105.408403 219.708 
L 102.475556 219.708 
z
" clip-path="url(#p8815ab7af4)" style="fill: #4be4aa; fill-opacity: 0.5; stroke: #000000; stroke-width: 0.281818; stroke-linejoin: miter"/>
   </g>
   <g id="patch_20">
    <path d="M 105.408403 242.44 
L 108.34125 242.44 
L 108.34125 224.2544 
L 105.408403 224.2544 
z
" clip-path="url(#p8815ab7af4)" style="fill: #4be4aa; fill-opacity: 0.5; stroke: #000000; stroke-width: 0.281818; stroke-linejoin: miter"/>
   </g>
   <g id="patch_21">
    <path d="M 108.34125 242.44 
L 111.274097 242.44 
L 111.274097 242.44 
L 108.34125 242.44 
z
" clip-path="url(#p8815ab7af4)" style="fill: #4be4aa; fill-opacity: 0.5; stroke: #000000; stroke-width: 0.281818; stroke-linejoin: miter"/>
   </g>
   <g id="patch_22">
    <path d="M 111.274097 242.44 
L 114.206944 242.44 
L 114.206944 240.1668 
L 111.274097 240.1668 
z
" clip-path="url(#p8815ab7af4)" style="fill: #4be4aa; fill-opacity: 0.5; stroke: #000000; stroke-width: 0.281818; stroke-linejoin: miter"/>
   </g>
   <g id="patch_23">
    <path d="M 114.206944 242.44 
L 117.139792 242.44 
L 117.139792 242.44 
L 114.206944 242.44 
z
" clip-path="url(#p8815ab7af4)" style="fill: #4be4aa; fill-opacity: 0.5; stroke: #000000; stroke-width: 0.281818; stroke-linejoin: miter"/>
   </g>
   <g id="patch_24">
    <path d="M 117.139792 242.44 
L 120.072639 242.44 
L 120.072639 235.6204 
L 117.139792 235.6204 
z
" clip-path="url(#p8815ab7af4)" style="fill: #4be4aa; fill-opacity: 0.5; stroke: #000000; stroke-width: 0.281818; stroke-linejoin: miter"/>
   </g>
   <g id="patch_25">
    <path d="M 120.072639 242.44 
L 123.005486 242.44 
L 123.005486 242.44 
L 120.072639 242.44 
z
" clip-path="url(#p8815ab7af4)" style="fill: #4be4aa; fill-opacity: 0.5; stroke: #000000; stroke-width: 0.281818; stroke-linejoin: miter"/>
   </g>
   <g id="patch_26">
    <path d="M 123.005486 242.44 
L 125.938333 242.44 
L 125.938333 242.44 
L 123.005486 242.44 
z
" clip-path="url(#p8815ab7af4)" style="fill: #4be4aa; fill-opacity: 0.5; stroke: #000000; stroke-width: 0.281818; stroke-linejoin: miter"/>
   </g>
   <g id="patch_27">
    <path d="M 125.938333 242.44 
L 128.871181 242.44 
L 128.871181 235.6204 
L 125.938333 235.6204 
z
" clip-path="url(#p8815ab7af4)" style="fill: #4be4aa; fill-opacity: 0.5; stroke: #000000; stroke-width: 0.281818; stroke-linejoin: miter"/>
   </g>
   <g id="patch_28">
    <path d="M 128.871181 242.44 
L 131.804028 242.44 
L 131.804028 242.44 
L 128.871181 242.44 
z
" clip-path="url(#p8815ab7af4)" style="fill: #4be4aa; fill-opacity: 0.5; stroke: #000000; stroke-width: 0.281818; stroke-linejoin: miter"/>
   </g>
   <g id="patch_29">
    <path d="M 131.804028 242.44 
L 134.736875 242.44 
L 134.736875 242.44 
L 131.804028 242.44 
z
" clip-path="url(#p8815ab7af4)" style="fill: #4be4aa; fill-opacity: 0.5; stroke: #000000; stroke-width: 0.281818; stroke-linejoin: miter"/>
   </g>
   <g id="patch_30">
    <path d="M 134.736875 242.44 
L 137.669722 242.44 
L 137.669722 231.074 
L 134.736875 231.074 
z
" clip-path="url(#p8815ab7af4)" style="fill: #4be4aa; fill-opacity: 0.5; stroke: #000000; stroke-width: 0.281818; stroke-linejoin: miter"/>
   </g>
   <g id="patch_31">
    <path d="M 137.669722 242.44 
L 140.602569 242.44 
L 140.602569 240.1668 
L 137.669722 240.1668 
z
" clip-path="url(#p8815ab7af4)" style="fill: #4be4aa; fill-opacity: 0.5; stroke: #000000; stroke-width: 0.281818; stroke-linejoin: miter"/>
   </g>
   <g id="patch_32">
    <path d="M 140.602569 242.44 
L 143.535417 242.44 
L 143.535417 242.44 
L 140.602569 242.44 
z
" clip-path="url(#p8815ab7af4)" style="fill: #4be4aa; fill-opacity: 0.5; stroke: #000000; stroke-width: 0.281818; stroke-linejoin: miter"/>
   </g>
   <g id="patch_33">
    <path d="M 143.535417 242.44 
L 146.468264 242.44 
L 146.468264 242.44 
L 143.535417 242.44 
z
" clip-path="url(#p8815ab7af4)" style="fill: #4be4aa; fill-opacity: 0.5; stroke: #000000; stroke-width: 0.281818; stroke-linejoin: miter"/>
   </g>
   <g id="patch_34">
    <path d="M 146.468264 242.44 
L 149.401111 242.44 
L 149.401111 240.1668 
L 146.468264 240.1668 
z
" clip-path="url(#p8815ab7af4)" style="fill: #4be4aa; fill-opacity: 0.5; stroke: #000000; stroke-width: 0.281818; stroke-linejoin: miter"/>
   </g>
   <g id="patch_35">
    <path d="M 149.401111 242.44 
L 152.333958 242.44 
L 152.333958 242.44 
L 149.401111 242.44 
z
" clip-path="url(#p8815ab7af4)" style="fill: #4be4aa; fill-opacity: 0.5; stroke: #000000; stroke-width: 0.281818; stroke-linejoin: miter"/>
   </g>
   <g id="patch_36">
    <path d="M 152.333958 242.44 
L 155.266806 242.44 
L 155.266806 237.8936 
L 152.333958 237.8936 
z
" clip-path="url(#p8815ab7af4)" style="fill: #4be4aa; fill-opacity: 0.5; stroke: #000000; stroke-width: 0.281818; stroke-linejoin: miter"/>
   </g>
   <g id="patch_37">
    <path d="M 155.266806 242.44 
L 158.199653 242.44 
L 158.199653 235.6204 
L 155.266806 235.6204 
z
" clip-path="url(#p8815ab7af4)" style="fill: #4be4aa; fill-opacity: 0.5; stroke: #000000; stroke-width: 0.281818; stroke-linejoin: miter"/>
   </g>
   <g id="patch_38">
    <path d="M 158.199653 242.44 
L 161.1325 242.44 
L 161.1325 242.44 
L 158.199653 242.44 
z
" clip-path="url(#p8815ab7af4)" style="fill: #4be4aa; fill-opacity: 0.5; stroke: #000000; stroke-width: 0.281818; stroke-linejoin: miter"/>
   </g>
   <g id="patch_39">
    <path d="M 161.1325 242.44 
L 164.065347 242.44 
L 164.065347 242.44 
L 161.1325 242.44 
z
" clip-path="url(#p8815ab7af4)" style="fill: #4be4aa; fill-opacity: 0.5; stroke: #000000; stroke-width: 0.281818; stroke-linejoin: miter"/>
   </g>
   <g id="patch_40">
    <path d="M 164.065347 242.44 
L 166.998194 242.44 
L 166.998194 240.1668 
L 164.065347 240.1668 
z
" clip-path="url(#p8815ab7af4)" style="fill: #4be4aa; fill-opacity: 0.5; stroke: #000000; stroke-width: 0.281818; stroke-linejoin: miter"/>
   </g>
   <g id="patch_41">
    <path d="M 166.998194 242.44 
L 169.931042 242.44 
L 169.931042 237.8936 
L 166.998194 237.8936 
z
" clip-path="url(#p8815ab7af4)" style="fill: #4be4aa; fill-opacity: 0.5; stroke: #000000; stroke-width: 0.281818; stroke-linejoin: miter"/>
   </g>
   <g id="patch_42">
    <path d="M 169.931042 242.44 
L 172.863889 242.44 
L 172.863889 240.1668 
L 169.931042 240.1668 
z
" clip-path="url(#p8815ab7af4)" style="fill: #4be4aa; fill-opacity: 0.5; stroke: #000000; stroke-width: 0.281818; stroke-linejoin: miter"/>
   </g>
   <g id="patch_43">
    <path d="M 172.863889 242.44 
L 175.796736 242.44 
L 175.796736 242.44 
L 172.863889 242.44 
z
" clip-path="url(#p8815ab7af4)" style="fill: #4be4aa; fill-opacity: 0.5; stroke: #000000; stroke-width: 0.281818; stroke-linejoin: miter"/>
   </g>
   <g id="patch_44">
    <path d="M 175.796736 242.44 
L 178.729583 242.44 
L 178.729583 242.44 
L 175.796736 242.44 
z
" clip-path="url(#p8815ab7af4)" style="fill: #4be4aa; fill-opacity: 0.5; stroke: #000000; stroke-width: 0.281818; stroke-linejoin: miter"/>
   </g>
   <g id="patch_45">
    <path d="M 178.729583 242.44 
L 181.662431 242.44 
L 181.662431 240.1668 
L 178.729583 240.1668 
z
" clip-path="url(#p8815ab7af4)" style="fill: #4be4aa; fill-opacity: 0.5; stroke: #000000; stroke-width: 0.281818; stroke-linejoin: miter"/>
   </g>
   <g id="patch_46">
    <path d="M 181.662431 242.44 
L 184.595278 242.44 
L 184.595278 242.44 
L 181.662431 242.44 
z
" clip-path="url(#p8815ab7af4)" style="fill: #4be4aa; fill-opacity: 0.5; stroke: #000000; stroke-width: 0.281818; stroke-linejoin: miter"/>
   </g>
   <g id="patch_47">
    <path d="M 184.595278 242.44 
L 187.528125 242.44 
L 187.528125 242.44 
L 184.595278 242.44 
z
" clip-path="url(#p8815ab7af4)" style="fill: #4be4aa; fill-opacity: 0.5; stroke: #000000; stroke-width: 0.281818; stroke-linejoin: miter"/>
   </g>
   <g id="patch_48">
    <path d="M 187.528125 242.44 
L 190.460972 242.44 
L 190.460972 242.44 
L 187.528125 242.44 
z
" clip-path="url(#p8815ab7af4)" style="fill: #4be4aa; fill-opacity: 0.5; stroke: #000000; stroke-width: 0.281818; stroke-linejoin: miter"/>
   </g>
   <g id="patch_49">
    <path d="M 190.460972 242.44 
L 193.393819 242.44 
L 193.393819 242.44 
L 190.460972 242.44 
z
" clip-path="url(#p8815ab7af4)" style="fill: #4be4aa; fill-opacity: 0.5; stroke: #000000; stroke-width: 0.281818; stroke-linejoin: miter"/>
   </g>
   <g id="patch_50">
    <path d="M 193.393819 242.44 
L 196.326667 242.44 
L 196.326667 242.44 
L 193.393819 242.44 
z
" clip-path="url(#p8815ab7af4)" style="fill: #4be4aa; fill-opacity: 0.5; stroke: #000000; stroke-width: 0.281818; stroke-linejoin: miter"/>
   </g>
   <g id="patch_51">
    <path d="M 196.326667 242.44 
L 199.259514 242.44 
L 199.259514 242.44 
L 196.326667 242.44 
z
" clip-path="url(#p8815ab7af4)" style="fill: #4be4aa; fill-opacity: 0.5; stroke: #000000; stroke-width: 0.281818; stroke-linejoin: miter"/>
   </g>
   <g id="patch_52">
    <path d="M 199.259514 242.44 
L 202.192361 242.44 
L 202.192361 242.44 
L 199.259514 242.44 
z
" clip-path="url(#p8815ab7af4)" style="fill: #4be4aa; fill-opacity: 0.5; stroke: #000000; stroke-width: 0.281818; stroke-linejoin: miter"/>
   </g>
   <g id="patch_53">
    <path d="M 202.192361 242.44 
L 205.125208 242.44 
L 205.125208 208.342 
L 202.192361 208.342 
z
" clip-path="url(#p8815ab7af4)" style="fill: #4be4aa; fill-opacity: 0.5; stroke: #000000; stroke-width: 0.281818; stroke-linejoin: miter"/>
   </g>
   <g id="patch_54">
    <path d="M 205.125208 242.44 
L 208.058056 242.44 
L 208.058056 240.1668 
L 205.125208 240.1668 
z
" clip-path="url(#p8815ab7af4)" style="fill: #4be4aa; fill-opacity: 0.5; stroke: #000000; stroke-width: 0.281818; stroke-linejoin: miter"/>
   </g>
   <g id="patch_55">
    <path d="M 208.058056 242.44 
L 210.990903 242.44 
L 210.990903 237.8936 
L 208.058056 237.8936 
z
" clip-path="url(#p8815ab7af4)" style="fill: #4be4aa; fill-opacity: 0.5; stroke: #000000; stroke-width: 0.281818; stroke-linejoin: miter"/>
   </g>
   <g id="patch_56">
    <path d="M 210.990903 242.44 
L 213.92375 242.44 
L 213.92375 240.1668 
L 210.990903 240.1668 
z
" clip-path="url(#p8815ab7af4)" style="fill: #4be4aa; fill-opacity: 0.5; stroke: #000000; stroke-width: 0.281818; stroke-linejoin: miter"/>
   </g>
   <g id="patch_57">
    <path d="M 213.92375 242.44 
L 216.856597 242.44 
L 216.856597 221.9812 
L 213.92375 221.9812 
z
" clip-path="url(#p8815ab7af4)" style="fill: #4be4aa; fill-opacity: 0.5; stroke: #000000; stroke-width: 0.281818; stroke-linejoin: miter"/>
   </g>
   <g id="patch_58">
    <path d="M 216.856597 242.44 
L 219.789444 242.44 
L 219.789444 206.0688 
L 216.856597 206.0688 
z
" clip-path="url(#p8815ab7af4)" style="fill: #4be4aa; fill-opacity: 0.5; stroke: #000000; stroke-width: 0.281818; stroke-linejoin: miter"/>
   </g>
   <g id="patch_59">
    <path d="M 219.789444 242.44 
L 222.722292 242.44 
L 222.722292 190.1564 
L 219.789444 190.1564 
z
" clip-path="url(#p8815ab7af4)" style="fill: #4be4aa; fill-opacity: 0.5; stroke: #000000; stroke-width: 0.281818; stroke-linejoin: miter"/>
   </g>
   <g id="patch_60">
    <path d="M 222.722292 242.44 
L 225.655139 242.44 
L 225.655139 124.2336 
L 222.722292 124.2336 
z
" clip-path="url(#p8815ab7af4)" style="fill: #4be4aa; fill-opacity: 0.5; stroke: #000000; stroke-width: 0.281818; stroke-linejoin: miter"/>
   </g>
   <g id="patch_61">
    <path d="M 225.655139 242.44 
L 228.587986 242.44 
L 228.587986 78.7696 
L 225.655139 78.7696 
z
" clip-path="url(#p8815ab7af4)" style="fill: #4be4aa; fill-opacity: 0.5; stroke: #000000; stroke-width: 0.281818; stroke-linejoin: miter"/>
   </g>
   <g id="patch_62">
    <path d="M 228.587986 242.44 
L 231.520833 242.44 
L 231.520833 74.2232 
L 228.587986 74.2232 
z
" clip-path="url(#p8815ab7af4)" style="fill: #4be4aa; fill-opacity: 0.5; stroke: #000000; stroke-width: 0.281818; stroke-linejoin: miter"/>
   </g>
   <g id="patch_63">
    <path d="M 231.520833 242.44 
L 234.453681 242.44 
L 234.453681 149.2388 
L 231.520833 149.2388 
z
" clip-path="url(#p8815ab7af4)" style="fill: #4be4aa; fill-opacity: 0.5; stroke: #000000; stroke-width: 0.281818; stroke-linejoin: miter"/>
   </g>
   <g id="patch_64">
    <path d="M 234.453681 242.44 
L 237.386528 242.44 
L 237.386528 181.0636 
L 234.453681 181.0636 
z
" clip-path="url(#p8815ab7af4)" style="fill: #4be4aa; fill-opacity: 0.5; stroke: #000000; stroke-width: 0.281818; stroke-linejoin: miter"/>
   </g>
   <g id="patch_65">
    <path d="M 237.386528 242.44 
L 240.319375 242.44 
L 240.319375 201.5224 
L 237.386528 201.5224 
z
" clip-path="url(#p8815ab7af4)" style="fill: #4be4aa; fill-opacity: 0.5; stroke: #000000; stroke-width: 0.281818; stroke-linejoin: miter"/>
   </g>
   <g id="patch_66">
    <path d="M 240.319375 242.44 
L 243.252222 242.44 
L 243.252222 192.4296 
L 240.319375 192.4296 
z
" clip-path="url(#p8815ab7af4)" style="fill: #4be4aa; fill-opacity: 0.5; stroke: #000000; stroke-width: 0.281818; stroke-linejoin: miter"/>
   </g>
   <g id="patch_67">
    <path d="M 243.252222 242.44 
L 246.185069 242.44 
L 246.185069 237.8936 
L 243.252222 237.8936 
z
" clip-path="url(#p8815ab7af4)" style="fill: #4be4aa; fill-opacity: 0.5; stroke: #000000; stroke-width: 0.281818; stroke-linejoin: miter"/>
   </g>
   <g id="patch_68">
    <path d="M 246.185069 242.44 
L 249.117917 242.44 
L 249.117917 235.6204 
L 246.185069 235.6204 
z
" clip-path="url(#p8815ab7af4)" style="fill: #4be4aa; fill-opacity: 0.5; stroke: #000000; stroke-width: 0.281818; stroke-linejoin: miter"/>
   </g>
   <g id="patch_69">
    <path d="M 249.117917 242.44 
L 252.050764 242.44 
L 252.050764 217.4348 
L 249.117917 217.4348 
z
" clip-path="url(#p8815ab7af4)" style="fill: #4be4aa; fill-opacity: 0.5; stroke: #000000; stroke-width: 0.281818; stroke-linejoin: miter"/>
   </g>
   <g id="patch_70">
    <path d="M 252.050764 242.44 
L 254.983611 242.44 
L 254.983611 231.074 
L 252.050764 231.074 
z
" clip-path="url(#p8815ab7af4)" style="fill: #4be4aa; fill-opacity: 0.5; stroke: #000000; stroke-width: 0.281818; stroke-linejoin: miter"/>
   </g>
   <g id="patch_71">
    <path d="M 254.983611 242.44 
L 257.916458 242.44 
L 257.916458 240.1668 
L 254.983611 240.1668 
z
" clip-path="url(#p8815ab7af4)" style="fill: #4be4aa; fill-opacity: 0.5; stroke: #000000; stroke-width: 0.281818; stroke-linejoin: miter"/>
   </g>
   <g id="patch_72">
    <path d="M 257.916458 242.44 
L 260.849306 242.44 
L 260.849306 212.8884 
L 257.916458 212.8884 
z
" clip-path="url(#p8815ab7af4)" style="fill: #4be4aa; fill-opacity: 0.5; stroke: #000000; stroke-width: 0.281818; stroke-linejoin: miter"/>
   </g>
   <g id="patch_73">
    <path d="M 260.849306 242.44 
L 263.782153 242.44 
L 263.782153 237.8936 
L 260.849306 237.8936 
z
" clip-path="url(#p8815ab7af4)" style="fill: #4be4aa; fill-opacity: 0.5; stroke: #000000; stroke-width: 0.281818; stroke-linejoin: miter"/>
   </g>
   <g id="patch_74">
    <path d="M 263.782153 242.44 
L 266.715 242.44 
L 266.715 242.44 
L 263.782153 242.44 
z
" clip-path="url(#p8815ab7af4)" style="fill: #4be4aa; fill-opacity: 0.5; stroke: #000000; stroke-width: 0.281818; stroke-linejoin: miter"/>
   </g>
   <g id="patch_75">
    <path d="M 55.55 242.44 
L 58.482847 242.44 
L 58.482847 242.44 
L 55.55 242.44 
z
" clip-path="url(#p8815ab7af4)" style="fill: #ffb000; fill-opacity: 0.5; stroke: #000000; stroke-width: 0.281818; stroke-linejoin: miter"/>
   </g>
   <g id="patch_76">
    <path d="M 58.482847 242.44 
L 61.415694 242.44 
L 61.415694 242.44 
L 58.482847 242.44 
z
" clip-path="url(#p8815ab7af4)" style="fill: #ffb000; fill-opacity: 0.5; stroke: #000000; stroke-width: 0.281818; stroke-linejoin: miter"/>
   </g>
   <g id="patch_77">
    <path d="M 61.415694 242.44 
L 64.348542 242.44 
L 64.348542 242.44 
L 61.415694 242.44 
z
" clip-path="url(#p8815ab7af4)" style="fill: #ffb000; fill-opacity: 0.5; stroke: #000000; stroke-width: 0.281818; stroke-linejoin: miter"/>
   </g>
   <g id="patch_78">
    <path d="M 64.348542 242.44 
L 67.281389 242.44 
L 67.281389 242.44 
L 64.348542 242.44 
z
" clip-path="url(#p8815ab7af4)" style="fill: #ffb000; fill-opacity: 0.5; stroke: #000000; stroke-width: 0.281818; stroke-linejoin: miter"/>
   </g>
   <g id="patch_79">
    <path d="M 67.281389 242.44 
L 70.214236 242.44 
L 70.214236 242.44 
L 67.281389 242.44 
z
" clip-path="url(#p8815ab7af4)" style="fill: #ffb000; fill-opacity: 0.5; stroke: #000000; stroke-width: 0.281818; stroke-linejoin: miter"/>
   </g>
   <g id="patch_80">
    <path d="M 70.214236 242.44 
L 73.147083 242.44 
L 73.147083 242.44 
L 70.214236 242.44 
z
" clip-path="url(#p8815ab7af4)" style="fill: #ffb000; fill-opacity: 0.5; stroke: #000000; stroke-width: 0.281818; stroke-linejoin: miter"/>
   </g>
   <g id="patch_81">
    <path d="M 73.147083 242.44 
L 76.079931 242.44 
L 76.079931 242.44 
L 73.147083 242.44 
z
" clip-path="url(#p8815ab7af4)" style="fill: #ffb000; fill-opacity: 0.5; stroke: #000000; stroke-width: 0.281818; stroke-linejoin: miter"/>
   </g>
   <g id="patch_82">
    <path d="M 76.079931 242.44 
L 79.012778 242.44 
L 79.012778 242.44 
L 76.079931 242.44 
z
" clip-path="url(#p8815ab7af4)" style="fill: #ffb000; fill-opacity: 0.5; stroke: #000000; stroke-width: 0.281818; stroke-linejoin: miter"/>
   </g>
   <g id="patch_83">
    <path d="M 79.012778 242.44 
L 81.945625 242.44 
L 81.945625 231.074 
L 79.012778 231.074 
z
" clip-path="url(#p8815ab7af4)" style="fill: #ffb000; fill-opacity: 0.5; stroke: #000000; stroke-width: 0.281818; stroke-linejoin: miter"/>
   </g>
   <g id="patch_84">
    <path d="M 81.945625 242.44 
L 84.878472 242.44 
L 84.878472 240.1668 
L 81.945625 240.1668 
z
" clip-path="url(#p8815ab7af4)" style="fill: #ffb000; fill-opacity: 0.5; stroke: #000000; stroke-width: 0.281818; stroke-linejoin: miter"/>
   </g>
   <g id="patch_85">
    <path d="M 84.878472 242.44 
L 87.811319 242.44 
L 87.811319 242.44 
L 84.878472 242.44 
z
" clip-path="url(#p8815ab7af4)" style="fill: #ffb000; fill-opacity: 0.5; stroke: #000000; stroke-width: 0.281818; stroke-linejoin: miter"/>
   </g>
   <g id="patch_86">
    <path d="M 87.811319 242.44 
L 90.744167 242.44 
L 90.744167 233.3472 
L 87.811319 233.3472 
z
" clip-path="url(#p8815ab7af4)" style="fill: #ffb000; fill-opacity: 0.5; stroke: #000000; stroke-width: 0.281818; stroke-linejoin: miter"/>
   </g>
   <g id="patch_87">
    <path d="M 90.744167 242.44 
L 93.677014 242.44 
L 93.677014 235.6204 
L 90.744167 235.6204 
z
" clip-path="url(#p8815ab7af4)" style="fill: #ffb000; fill-opacity: 0.5; stroke: #000000; stroke-width: 0.281818; stroke-linejoin: miter"/>
   </g>
   <g id="patch_88">
    <path d="M 93.677014 242.44 
L 96.609861 242.44 
L 96.609861 242.44 
L 93.677014 242.44 
z
" clip-path="url(#p8815ab7af4)" style="fill: #ffb000; fill-opacity: 0.5; stroke: #000000; stroke-width: 0.281818; stroke-linejoin: miter"/>
   </g>
   <g id="patch_89">
    <path d="M 96.609861 242.44 
L 99.542708 242.44 
L 99.542708 242.44 
L 96.609861 242.44 
z
" clip-path="url(#p8815ab7af4)" style="fill: #ffb000; fill-opacity: 0.5; stroke: #000000; stroke-width: 0.281818; stroke-linejoin: miter"/>
   </g>
   <g id="patch_90">
    <path d="M 99.542708 242.44 
L 102.475556 242.44 
L 102.475556 242.44 
L 99.542708 242.44 
z
" clip-path="url(#p8815ab7af4)" style="fill: #ffb000; fill-opacity: 0.5; stroke: #000000; stroke-width: 0.281818; stroke-linejoin: miter"/>
   </g>
   <g id="patch_91">
    <path d="M 102.475556 242.44 
L 105.408403 242.44 
L 105.408403 242.44 
L 102.475556 242.44 
z
" clip-path="url(#p8815ab7af4)" style="fill: #ffb000; fill-opacity: 0.5; stroke: #000000; stroke-width: 0.281818; stroke-linejoin: miter"/>
   </g>
   <g id="patch_92">
    <path d="M 105.408403 242.44 
L 108.34125 242.44 
L 108.34125 242.44 
L 105.408403 242.44 
z
" clip-path="url(#p8815ab7af4)" style="fill: #ffb000; fill-opacity: 0.5; stroke: #000000; stroke-width: 0.281818; stroke-linejoin: miter"/>
   </g>
   <g id="patch_93">
    <path d="M 108.34125 242.44 
L 111.274097 242.44 
L 111.274097 242.44 
L 108.34125 242.44 
z
" clip-path="url(#p8815ab7af4)" style="fill: #ffb000; fill-opacity: 0.5; stroke: #000000; stroke-width: 0.281818; stroke-linejoin: miter"/>
   </g>
   <g id="patch_94">
    <path d="M 111.274097 242.44 
L 114.206944 242.44 
L 114.206944 242.44 
L 111.274097 242.44 
z
" clip-path="url(#p8815ab7af4)" style="fill: #ffb000; fill-opacity: 0.5; stroke: #000000; stroke-width: 0.281818; stroke-linejoin: miter"/>
   </g>
   <g id="patch_95">
    <path d="M 114.206944 242.44 
L 117.139792 242.44 
L 117.139792 242.44 
L 114.206944 242.44 
z
" clip-path="url(#p8815ab7af4)" style="fill: #ffb000; fill-opacity: 0.5; stroke: #000000; stroke-width: 0.281818; stroke-linejoin: miter"/>
   </g>
   <g id="patch_96">
    <path d="M 117.139792 242.44 
L 120.072639 242.44 
L 120.072639 242.44 
L 117.139792 242.44 
z
" clip-path="url(#p8815ab7af4)" style="fill: #ffb000; fill-opacity: 0.5; stroke: #000000; stroke-width: 0.281818; stroke-linejoin: miter"/>
   </g>
   <g id="patch_97">
    <path d="M 120.072639 242.44 
L 123.005486 242.44 
L 123.005486 242.44 
L 120.072639 242.44 
z
" clip-path="url(#p8815ab7af4)" style="fill: #ffb000; fill-opacity: 0.5; stroke: #000000; stroke-width: 0.281818; stroke-linejoin: miter"/>
   </g>
   <g id="patch_98">
    <path d="M 123.005486 242.44 
L 125.938333 242.44 
L 125.938333 242.44 
L 123.005486 242.44 
z
" clip-path="url(#p8815ab7af4)" style="fill: #ffb000; fill-opacity: 0.5; stroke: #000000; stroke-width: 0.281818; stroke-linejoin: miter"/>
   </g>
   <g id="patch_99">
    <path d="M 125.938333 242.44 
L 128.871181 242.44 
L 128.871181 242.44 
L 125.938333 242.44 
z
" clip-path="url(#p8815ab7af4)" style="fill: #ffb000; fill-opacity: 0.5; stroke: #000000; stroke-width: 0.281818; stroke-linejoin: miter"/>
   </g>
   <g id="patch_100">
    <path d="M 128.871181 242.44 
L 131.804028 242.44 
L 131.804028 242.44 
L 128.871181 242.44 
z
" clip-path="url(#p8815ab7af4)" style="fill: #ffb000; fill-opacity: 0.5; stroke: #000000; stroke-width: 0.281818; stroke-linejoin: miter"/>
   </g>
   <g id="patch_101">
    <path d="M 131.804028 242.44 
L 134.736875 242.44 
L 134.736875 242.44 
L 131.804028 242.44 
z
" clip-path="url(#p8815ab7af4)" style="fill: #ffb000; fill-opacity: 0.5; stroke: #000000; stroke-width: 0.281818; stroke-linejoin: miter"/>
   </g>
   <g id="patch_102">
    <path d="M 134.736875 242.44 
L 137.669722 242.44 
L 137.669722 235.6204 
L 134.736875 235.6204 
z
" clip-path="url(#p8815ab7af4)" style="fill: #ffb000; fill-opacity: 0.5; stroke: #000000; stroke-width: 0.281818; stroke-linejoin: miter"/>
   </g>
   <g id="patch_103">
    <path d="M 137.669722 242.44 
L 140.602569 242.44 
L 140.602569 240.1668 
L 137.669722 240.1668 
z
" clip-path="url(#p8815ab7af4)" style="fill: #ffb000; fill-opacity: 0.5; stroke: #000000; stroke-width: 0.281818; stroke-linejoin: miter"/>
   </g>
   <g id="patch_104">
    <path d="M 140.602569 242.44 
L 143.535417 242.44 
L 143.535417 242.44 
L 140.602569 242.44 
z
" clip-path="url(#p8815ab7af4)" style="fill: #ffb000; fill-opacity: 0.5; stroke: #000000; stroke-width: 0.281818; stroke-linejoin: miter"/>
   </g>
   <g id="patch_105">
    <path d="M 143.535417 242.44 
L 146.468264 242.44 
L 146.468264 242.44 
L 143.535417 242.44 
z
" clip-path="url(#p8815ab7af4)" style="fill: #ffb000; fill-opacity: 0.5; stroke: #000000; stroke-width: 0.281818; stroke-linejoin: miter"/>
   </g>
   <g id="patch_106">
    <path d="M 146.468264 242.44 
L 149.401111 242.44 
L 149.401111 242.44 
L 146.468264 242.44 
z
" clip-path="url(#p8815ab7af4)" style="fill: #ffb000; fill-opacity: 0.5; stroke: #000000; stroke-width: 0.281818; stroke-linejoin: miter"/>
   </g>
   <g id="patch_107">
    <path d="M 149.401111 242.44 
L 152.333958 242.44 
L 152.333958 242.44 
L 149.401111 242.44 
z
" clip-path="url(#p8815ab7af4)" style="fill: #ffb000; fill-opacity: 0.5; stroke: #000000; stroke-width: 0.281818; stroke-linejoin: miter"/>
   </g>
   <g id="patch_108">
    <path d="M 152.333958 242.44 
L 155.266806 242.44 
L 155.266806 242.44 
L 152.333958 242.44 
z
" clip-path="url(#p8815ab7af4)" style="fill: #ffb000; fill-opacity: 0.5; stroke: #000000; stroke-width: 0.281818; stroke-linejoin: miter"/>
   </g>
   <g id="patch_109">
    <path d="M 155.266806 242.44 
L 158.199653 242.44 
L 158.199653 242.44 
L 155.266806 242.44 
z
" clip-path="url(#p8815ab7af4)" style="fill: #ffb000; fill-opacity: 0.5; stroke: #000000; stroke-width: 0.281818; stroke-linejoin: miter"/>
   </g>
   <g id="patch_110">
    <path d="M 158.199653 242.44 
L 161.1325 242.44 
L 161.1325 240.1668 
L 158.199653 240.1668 
z
" clip-path="url(#p8815ab7af4)" style="fill: #ffb000; fill-opacity: 0.5; stroke: #000000; stroke-width: 0.281818; stroke-linejoin: miter"/>
   </g>
   <g id="patch_111">
    <path d="M 161.1325 242.44 
L 164.065347 242.44 
L 164.065347 242.44 
L 161.1325 242.44 
z
" clip-path="url(#p8815ab7af4)" style="fill: #ffb000; fill-opacity: 0.5; stroke: #000000; stroke-width: 0.281818; stroke-linejoin: miter"/>
   </g>
   <g id="patch_112">
    <path d="M 164.065347 242.44 
L 166.998194 242.44 
L 166.998194 242.44 
L 164.065347 242.44 
z
" clip-path="url(#p8815ab7af4)" style="fill: #ffb000; fill-opacity: 0.5; stroke: #000000; stroke-width: 0.281818; stroke-linejoin: miter"/>
   </g>
   <g id="patch_113">
    <path d="M 166.998194 242.44 
L 169.931042 242.44 
L 169.931042 242.44 
L 166.998194 242.44 
z
" clip-path="url(#p8815ab7af4)" style="fill: #ffb000; fill-opacity: 0.5; stroke: #000000; stroke-width: 0.281818; stroke-linejoin: miter"/>
   </g>
   <g id="patch_114">
    <path d="M 169.931042 242.44 
L 172.863889 242.44 
L 172.863889 242.44 
L 169.931042 242.44 
z
" clip-path="url(#p8815ab7af4)" style="fill: #ffb000; fill-opacity: 0.5; stroke: #000000; stroke-width: 0.281818; stroke-linejoin: miter"/>
   </g>
   <g id="patch_115">
    <path d="M 172.863889 242.44 
L 175.796736 242.44 
L 175.796736 242.44 
L 172.863889 242.44 
z
" clip-path="url(#p8815ab7af4)" style="fill: #ffb000; fill-opacity: 0.5; stroke: #000000; stroke-width: 0.281818; stroke-linejoin: miter"/>
   </g>
   <g id="patch_116">
    <path d="M 175.796736 242.44 
L 178.729583 242.44 
L 178.729583 242.44 
L 175.796736 242.44 
z
" clip-path="url(#p8815ab7af4)" style="fill: #ffb000; fill-opacity: 0.5; stroke: #000000; stroke-width: 0.281818; stroke-linejoin: miter"/>
   </g>
   <g id="patch_117">
    <path d="M 178.729583 242.44 
L 181.662431 242.44 
L 181.662431 242.44 
L 178.729583 242.44 
z
" clip-path="url(#p8815ab7af4)" style="fill: #ffb000; fill-opacity: 0.5; stroke: #000000; stroke-width: 0.281818; stroke-linejoin: miter"/>
   </g>
   <g id="patch_118">
    <path d="M 181.662431 242.44 
L 184.595278 242.44 
L 184.595278 242.44 
L 181.662431 242.44 
z
" clip-path="url(#p8815ab7af4)" style="fill: #ffb000; fill-opacity: 0.5; stroke: #000000; stroke-width: 0.281818; stroke-linejoin: miter"/>
   </g>
   <g id="patch_119">
    <path d="M 184.595278 242.44 
L 187.528125 242.44 
L 187.528125 242.44 
L 184.595278 242.44 
z
" clip-path="url(#p8815ab7af4)" style="fill: #ffb000; fill-opacity: 0.5; stroke: #000000; stroke-width: 0.281818; stroke-linejoin: miter"/>
   </g>
   <g id="patch_120">
    <path d="M 187.528125 242.44 
L 190.460972 242.44 
L 190.460972 242.44 
L 187.528125 242.44 
z
" clip-path="url(#p8815ab7af4)" style="fill: #ffb000; fill-opacity: 0.5; stroke: #000000; stroke-width: 0.281818; stroke-linejoin: miter"/>
   </g>
   <g id="patch_121">
    <path d="M 190.460972 242.44 
L 193.393819 242.44 
L 193.393819 242.44 
L 190.460972 242.44 
z
" clip-path="url(#p8815ab7af4)" style="fill: #ffb000; fill-opacity: 0.5; stroke: #000000; stroke-width: 0.281818; stroke-linejoin: miter"/>
   </g>
   <g id="patch_122">
    <path d="M 193.393819 242.44 
L 196.326667 242.44 
L 196.326667 242.44 
L 193.393819 242.44 
z
" clip-path="url(#p8815ab7af4)" style="fill: #ffb000; fill-opacity: 0.5; stroke: #000000; stroke-width: 0.281818; stroke-linejoin: miter"/>
   </g>
   <g id="patch_123">
    <path d="M 196.326667 242.44 
L 199.259514 242.44 
L 199.259514 242.44 
L 196.326667 242.44 
z
" clip-path="url(#p8815ab7af4)" style="fill: #ffb000; fill-opacity: 0.5; stroke: #000000; stroke-width: 0.281818; stroke-linejoin: miter"/>
   </g>
   <g id="patch_124">
    <path d="M 199.259514 242.44 
L 202.192361 242.44 
L 202.192361 242.44 
L 199.259514 242.44 
z
" clip-path="url(#p8815ab7af4)" style="fill: #ffb000; fill-opacity: 0.5; stroke: #000000; stroke-width: 0.281818; stroke-linejoin: miter"/>
   </g>
   <g id="patch_125">
    <path d="M 202.192361 242.44 
L 205.125208 242.44 
L 205.125208 242.44 
L 202.192361 242.44 
z
" clip-path="url(#p8815ab7af4)" style="fill: #ffb000; fill-opacity: 0.5; stroke: #000000; stroke-width: 0.281818; stroke-linejoin: miter"/>
   </g>
   <g id="patch_126">
    <path d="M 205.125208 242.44 
L 208.058056 242.44 
L 208.058056 242.44 
L 205.125208 242.44 
z
" clip-path="url(#p8815ab7af4)" style="fill: #ffb000; fill-opacity: 0.5; stroke: #000000; stroke-width: 0.281818; stroke-linejoin: miter"/>
   </g>
   <g id="patch_127">
    <path d="M 208.058056 242.44 
L 210.990903 242.44 
L 210.990903 242.44 
L 208.058056 242.44 
z
" clip-path="url(#p8815ab7af4)" style="fill: #ffb000; fill-opacity: 0.5; stroke: #000000; stroke-width: 0.281818; stroke-linejoin: miter"/>
   </g>
   <g id="patch_128">
    <path d="M 210.990903 242.44 
L 213.92375 242.44 
L 213.92375 242.44 
L 210.990903 242.44 
z
" clip-path="url(#p8815ab7af4)" style="fill: #ffb000; fill-opacity: 0.5; stroke: #000000; stroke-width: 0.281818; stroke-linejoin: miter"/>
   </g>
   <g id="patch_129">
    <path d="M 213.92375 242.44 
L 216.856597 242.44 
L 216.856597 242.44 
L 213.92375 242.44 
z
" clip-path="url(#p8815ab7af4)" style="fill: #ffb000; fill-opacity: 0.5; stroke: #000000; stroke-width: 0.281818; stroke-linejoin: miter"/>
   </g>
   <g id="patch_130">
    <path d="M 216.856597 242.44 
L 219.789444 242.44 
L 219.789444 242.44 
L 216.856597 242.44 
z
" clip-path="url(#p8815ab7af4)" style="fill: #ffb000; fill-opacity: 0.5; stroke: #000000; stroke-width: 0.281818; stroke-linejoin: miter"/>
   </g>
   <g id="patch_131">
    <path d="M 219.789444 242.44 
L 222.722292 242.44 
L 222.722292 242.44 
L 219.789444 242.44 
z
" clip-path="url(#p8815ab7af4)" style="fill: #ffb000; fill-opacity: 0.5; stroke: #000000; stroke-width: 0.281818; stroke-linejoin: miter"/>
   </g>
   <g id="patch_132">
    <path d="M 222.722292 242.44 
L 225.655139 242.44 
L 225.655139 242.44 
L 222.722292 242.44 
z
" clip-path="url(#p8815ab7af4)" style="fill: #ffb000; fill-opacity: 0.5; stroke: #000000; stroke-width: 0.281818; stroke-linejoin: miter"/>
   </g>
   <g id="patch_133">
    <path d="M 225.655139 242.44 
L 228.587986 242.44 
L 228.587986 242.44 
L 225.655139 242.44 
z
" clip-path="url(#p8815ab7af4)" style="fill: #ffb000; fill-opacity: 0.5; stroke: #000000; stroke-width: 0.281818; stroke-linejoin: miter"/>
   </g>
   <g id="patch_134">
    <path d="M 228.587986 242.44 
L 231.520833 242.44 
L 231.520833 242.44 
L 228.587986 242.44 
z
" clip-path="url(#p8815ab7af4)" style="fill: #ffb000; fill-opacity: 0.5; stroke: #000000; stroke-width: 0.281818; stroke-linejoin: miter"/>
   </g>
   <g id="patch_135">
    <path d="M 231.520833 242.44 
L 234.453681 242.44 
L 234.453681 242.44 
L 231.520833 242.44 
z
" clip-path="url(#p8815ab7af4)" style="fill: #ffb000; fill-opacity: 0.5; stroke: #000000; stroke-width: 0.281818; stroke-linejoin: miter"/>
   </g>
   <g id="patch_136">
    <path d="M 234.453681 242.44 
L 237.386528 242.44 
L 237.386528 242.44 
L 234.453681 242.44 
z
" clip-path="url(#p8815ab7af4)" style="fill: #ffb000; fill-opacity: 0.5; stroke: #000000; stroke-width: 0.281818; stroke-linejoin: miter"/>
   </g>
   <g id="patch_137">
    <path d="M 237.386528 242.44 
L 240.319375 242.44 
L 240.319375 242.44 
L 237.386528 242.44 
z
" clip-path="url(#p8815ab7af4)" style="fill: #ffb000; fill-opacity: 0.5; stroke: #000000; stroke-width: 0.281818; stroke-linejoin: miter"/>
   </g>
   <g id="patch_138">
    <path d="M 240.319375 242.44 
L 243.252222 242.44 
L 243.252222 242.44 
L 240.319375 242.44 
z
" clip-path="url(#p8815ab7af4)" style="fill: #ffb000; fill-opacity: 0.5; stroke: #000000; stroke-width: 0.281818; stroke-linejoin: miter"/>
   </g>
   <g id="patch_139">
    <path d="M 243.252222 242.44 
L 246.185069 242.44 
L 246.185069 242.44 
L 243.252222 242.44 
z
" clip-path="url(#p8815ab7af4)" style="fill: #ffb000; fill-opacity: 0.5; stroke: #000000; stroke-width: 0.281818; stroke-linejoin: miter"/>
   </g>
   <g id="patch_140">
    <path d="M 246.185069 242.44 
L 249.117917 242.44 
L 249.117917 242.44 
L 246.185069 242.44 
z
" clip-path="url(#p8815ab7af4)" style="fill: #ffb000; fill-opacity: 0.5; stroke: #000000; stroke-width: 0.281818; stroke-linejoin: miter"/>
   </g>
   <g id="patch_141">
    <path d="M 249.117917 242.44 
L 252.050764 242.44 
L 252.050764 242.44 
L 249.117917 242.44 
z
" clip-path="url(#p8815ab7af4)" style="fill: #ffb000; fill-opacity: 0.5; stroke: #000000; stroke-width: 0.281818; stroke-linejoin: miter"/>
   </g>
   <g id="patch_142">
    <path d="M 252.050764 242.44 
L 254.983611 242.44 
L 254.983611 242.44 
L 252.050764 242.44 
z
" clip-path="url(#p8815ab7af4)" style="fill: #ffb000; fill-opacity: 0.5; stroke: #000000; stroke-width: 0.281818; stroke-linejoin: miter"/>
   </g>
   <g id="patch_143">
    <path d="M 254.983611 242.44 
L 257.916458 242.44 
L 257.916458 242.44 
L 254.983611 242.44 
z
" clip-path="url(#p8815ab7af4)" style="fill: #ffb000; fill-opacity: 0.5; stroke: #000000; stroke-width: 0.281818; stroke-linejoin: miter"/>
   </g>
   <g id="patch_144">
    <path d="M 257.916458 242.44 
L 260.849306 242.44 
L 260.849306 242.44 
L 257.916458 242.44 
z
" clip-path="url(#p8815ab7af4)" style="fill: #ffb000; fill-opacity: 0.5; stroke: #000000; stroke-width: 0.281818; stroke-linejoin: miter"/>
   </g>
   <g id="patch_145">
    <path d="M 260.849306 242.44 
L 263.782153 242.44 
L 263.782153 242.44 
L 260.849306 242.44 
z
" clip-path="url(#p8815ab7af4)" style="fill: #ffb000; fill-opacity: 0.5; stroke: #000000; stroke-width: 0.281818; stroke-linejoin: miter"/>
   </g>
   <g id="patch_146">
    <path d="M 263.782153 242.44 
L 266.715 242.44 
L 266.715 242.44 
L 263.782153 242.44 
z
" clip-path="url(#p8815ab7af4)" style="fill: #ffb000; fill-opacity: 0.5; stroke: #000000; stroke-width: 0.281818; stroke-linejoin: miter"/>
   </g>
   <g id="PathCollection_1"/>
   <g id="matplotlib.axis_1">
    <g id="xtick_1">
     <g id="line2d_1">
      <defs>
       <path id="m0c2e2dada0" d="M 0 0 
L 0 3.5 
" style="stroke: #000000; stroke-width: 0.8"/>
      </defs>
      <g>
       <use xlink:href="#m0c2e2dada0" x="55.55" y="242.44" style="stroke: #000000; stroke-width: 0.8"/>
      </g>
     </g>
     <g id="text_1">
      <!-- 0 -->
      <g transform="translate(52.050625 257.798281) scale(0.11 -0.11)">
       <defs>
        <path id="DejaVuSans-30" d="M 2034 4250 
Q 1547 4250 1301 3770 
Q 1056 3291 1056 2328 
Q 1056 1369 1301 889 
Q 1547 409 2034 409 
Q 2525 409 2770 889 
Q 3016 1369 3016 2328 
Q 3016 3291 2770 3770 
Q 2525 4250 2034 4250 
z
M 2034 4750 
Q 2819 4750 3233 4129 
Q 3647 3509 3647 2328 
Q 3647 1150 3233 529 
Q 2819 -91 2034 -91 
Q 1250 -91 836 529 
Q 422 1150 422 2328 
Q 422 3509 836 4129 
Q 1250 4750 2034 4750 
z
" transform="scale(0.015625)"/>
       </defs>
       <use xlink:href="#DejaVuSans-30"/>
      </g>
     </g>
    </g>
    <g id="xtick_2">
     <g id="line2d_2">
      <g>
       <use xlink:href="#m0c2e2dada0" x="90.744167" y="242.44" style="stroke: #000000; stroke-width: 0.8"/>
      </g>
     </g>
     <g id="text_2">
      <!-- 60 -->
      <g transform="translate(83.745417 257.798281) scale(0.11 -0.11)">
       <defs>
        <path id="DejaVuSans-36" d="M 2113 2584 
Q 1688 2584 1439 2293 
Q 1191 2003 1191 1497 
Q 1191 994 1439 701 
Q 1688 409 2113 409 
Q 2538 409 2786 701 
Q 3034 994 3034 1497 
Q 3034 2003 2786 2293 
Q 2538 2584 2113 2584 
z
M 3366 4563 
L 3366 3988 
Q 3128 4100 2886 4159 
Q 2644 4219 2406 4219 
Q 1781 4219 1451 3797 
Q 1122 3375 1075 2522 
Q 1259 2794 1537 2939 
Q 1816 3084 2150 3084 
Q 2853 3084 3261 2657 
Q 3669 2231 3669 1497 
Q 3669 778 3244 343 
Q 2819 -91 2113 -91 
Q 1303 -91 875 529 
Q 447 1150 447 2328 
Q 447 3434 972 4092 
Q 1497 4750 2381 4750 
Q 2619 4750 2861 4703 
Q 3103 4656 3366 4563 
z
" transform="scale(0.015625)"/>
       </defs>
       <use xlink:href="#DejaVuSans-36"/>
       <use xlink:href="#DejaVuSans-30" x="63.623047"/>
      </g>
     </g>
    </g>
    <g id="xtick_3">
     <g id="line2d_3">
      <g>
       <use xlink:href="#m0c2e2dada0" x="125.938333" y="242.44" style="stroke: #000000; stroke-width: 0.8"/>
      </g>
     </g>
     <g id="text_3">
      <!-- 120 -->
      <g transform="translate(115.440208 257.798281) scale(0.11 -0.11)">
       <defs>
        <path id="DejaVuSans-31" d="M 794 531 
L 1825 531 
L 1825 4091 
L 703 3866 
L 703 4441 
L 1819 4666 
L 2450 4666 
L 2450 531 
L 3481 531 
L 3481 0 
L 794 0 
L 794 531 
z
" transform="scale(0.015625)"/>
        <path id="DejaVuSans-32" d="M 1228 531 
L 3431 531 
L 3431 0 
L 469 0 
L 469 531 
Q 828 903 1448 1529 
Q 2069 2156 2228 2338 
Q 2531 2678 2651 2914 
Q 2772 3150 2772 3378 
Q 2772 3750 2511 3984 
Q 2250 4219 1831 4219 
Q 1534 4219 1204 4116 
Q 875 4013 500 3803 
L 500 4441 
Q 881 4594 1212 4672 
Q 1544 4750 1819 4750 
Q 2544 4750 2975 4387 
Q 3406 4025 3406 3419 
Q 3406 3131 3298 2873 
Q 3191 2616 2906 2266 
Q 2828 2175 2409 1742 
Q 1991 1309 1228 531 
z
" transform="scale(0.015625)"/>
       </defs>
       <use xlink:href="#DejaVuSans-31"/>
       <use xlink:href="#DejaVuSans-32" x="63.623047"/>
       <use xlink:href="#DejaVuSans-30" x="127.246094"/>
      </g>
     </g>
    </g>
    <g id="xtick_4">
     <g id="line2d_4">
      <g>
       <use xlink:href="#m0c2e2dada0" x="161.1325" y="242.44" style="stroke: #000000; stroke-width: 0.8"/>
      </g>
     </g>
     <g id="text_4">
      <!-- 180 -->
      <g transform="translate(150.634375 257.798281) scale(0.11 -0.11)">
       <defs>
        <path id="DejaVuSans-38" d="M 2034 2216 
Q 1584 2216 1326 1975 
Q 1069 1734 1069 1313 
Q 1069 891 1326 650 
Q 1584 409 2034 409 
Q 2484 409 2743 651 
Q 3003 894 3003 1313 
Q 3003 1734 2745 1975 
Q 2488 2216 2034 2216 
z
M 1403 2484 
Q 997 2584 770 2862 
Q 544 3141 544 3541 
Q 544 4100 942 4425 
Q 1341 4750 2034 4750 
Q 2731 4750 3128 4425 
Q 3525 4100 3525 3541 
Q 3525 3141 3298 2862 
Q 3072 2584 2669 2484 
Q 3125 2378 3379 2068 
Q 3634 1759 3634 1313 
Q 3634 634 3220 271 
Q 2806 -91 2034 -91 
Q 1263 -91 848 271 
Q 434 634 434 1313 
Q 434 1759 690 2068 
Q 947 2378 1403 2484 
z
M 1172 3481 
Q 1172 3119 1398 2916 
Q 1625 2713 2034 2713 
Q 2441 2713 2670 2916 
Q 2900 3119 2900 3481 
Q 2900 3844 2670 4047 
Q 2441 4250 2034 4250 
Q 1625 4250 1398 4047 
Q 1172 3844 1172 3481 
z
" transform="scale(0.015625)"/>
       </defs>
       <use xlink:href="#DejaVuSans-31"/>
       <use xlink:href="#DejaVuSans-38" x="63.623047"/>
       <use xlink:href="#DejaVuSans-30" x="127.246094"/>
      </g>
     </g>
    </g>
    <g id="xtick_5">
     <g id="line2d_5">
      <g>
       <use xlink:href="#m0c2e2dada0" x="196.326667" y="242.44" style="stroke: #000000; stroke-width: 0.8"/>
      </g>
     </g>
     <g id="text_5">
      <!-- 240 -->
      <g transform="translate(185.828542 257.798281) scale(0.11 -0.11)">
       <defs>
        <path id="DejaVuSans-34" d="M 2419 4116 
L 825 1625 
L 2419 1625 
L 2419 4116 
z
M 2253 4666 
L 3047 4666 
L 3047 1625 
L 3713 1625 
L 3713 1100 
L 3047 1100 
L 3047 0 
L 2419 0 
L 2419 1100 
L 313 1100 
L 313 1709 
L 2253 4666 
z
" transform="scale(0.015625)"/>
       </defs>
       <use xlink:href="#DejaVuSans-32"/>
       <use xlink:href="#DejaVuSans-34" x="63.623047"/>
       <use xlink:href="#DejaVuSans-30" x="127.246094"/>
      </g>
     </g>
    </g>
    <g id="xtick_6">
     <g id="line2d_6">
      <g>
       <use xlink:href="#m0c2e2dada0" x="231.520833" y="242.44" style="stroke: #000000; stroke-width: 0.8"/>
      </g>
     </g>
     <g id="text_6">
      <!-- 300 -->
      <g transform="translate(221.022708 257.798281) scale(0.11 -0.11)">
       <defs>
        <path id="DejaVuSans-33" d="M 2597 2516 
Q 3050 2419 3304 2112 
Q 3559 1806 3559 1356 
Q 3559 666 3084 287 
Q 2609 -91 1734 -91 
Q 1441 -91 1130 -33 
Q 819 25 488 141 
L 488 750 
Q 750 597 1062 519 
Q 1375 441 1716 441 
Q 2309 441 2620 675 
Q 2931 909 2931 1356 
Q 2931 1769 2642 2001 
Q 2353 2234 1838 2234 
L 1294 2234 
L 1294 2753 
L 1863 2753 
Q 2328 2753 2575 2939 
Q 2822 3125 2822 3475 
Q 2822 3834 2567 4026 
Q 2313 4219 1838 4219 
Q 1578 4219 1281 4162 
Q 984 4106 628 3988 
L 628 4550 
Q 988 4650 1302 4700 
Q 1616 4750 1894 4750 
Q 2613 4750 3031 4423 
Q 3450 4097 3450 3541 
Q 3450 3153 3228 2886 
Q 3006 2619 2597 2516 
z
" transform="scale(0.015625)"/>
       </defs>
       <use xlink:href="#DejaVuSans-33"/>
       <use xlink:href="#DejaVuSans-30" x="63.623047"/>
       <use xlink:href="#DejaVuSans-30" x="127.246094"/>
      </g>
     </g>
    </g>
    <g id="xtick_7">
     <g id="line2d_7">
      <g>
       <use xlink:href="#m0c2e2dada0" x="266.715" y="242.44" style="stroke: #000000; stroke-width: 0.8"/>
      </g>
     </g>
     <g id="text_7">
      <!-- 360 -->
      <g transform="translate(256.216875 257.798281) scale(0.11 -0.11)">
       <use xlink:href="#DejaVuSans-33"/>
       <use xlink:href="#DejaVuSans-36" x="63.623047"/>
       <use xlink:href="#DejaVuSans-30" x="127.246094"/>
      </g>
     </g>
    </g>
    <g id="xtick_8">
     <g id="line2d_8">
      <defs>
       <path id="m2c21680d22" d="M 0 0 
L 0 2 
" style="stroke: #000000; stroke-width: 0.6"/>
      </defs>
      <g>
       <use xlink:href="#m2c21680d22" x="73.147083" y="242.44" style="stroke: #000000; stroke-width: 0.6"/>
      </g>
     </g>
    </g>
    <g id="xtick_9">
     <g id="line2d_9">
      <g>
       <use xlink:href="#m2c21680d22" x="108.34125" y="242.44" style="stroke: #000000; stroke-width: 0.6"/>
      </g>
     </g>
    </g>
    <g id="xtick_10">
     <g id="line2d_10">
      <g>
       <use xlink:href="#m2c21680d22" x="143.535417" y="242.44" style="stroke: #000000; stroke-width: 0.6"/>
      </g>
     </g>
    </g>
    <g id="xtick_11">
     <g id="line2d_11">
      <g>
       <use xlink:href="#m2c21680d22" x="178.729583" y="242.44" style="stroke: #000000; stroke-width: 0.6"/>
      </g>
     </g>
    </g>
    <g id="xtick_12">
     <g id="line2d_12">
      <g>
       <use xlink:href="#m2c21680d22" x="213.92375" y="242.44" style="stroke: #000000; stroke-width: 0.6"/>
      </g>
     </g>
    </g>
    <g id="xtick_13">
     <g id="line2d_13">
      <g>
       <use xlink:href="#m2c21680d22" x="249.117917" y="242.44" style="stroke: #000000; stroke-width: 0.6"/>
      </g>
     </g>
    </g>
    <g id="text_8">
     <!-- $\omega$ -->
     <g transform="translate(156.0925 273.204062) scale(0.12 -0.12)">
      <defs>
       <path id="DejaVuSans-Oblique-3c9" d="M 1369 -91 
Q 72 -91 434 1766 
Q 575 2500 1256 3500 
L 1875 3500 
Q 1231 2500 1088 1750 
Q 819 397 1519 397 
Q 2166 397 2478 2078 
L 3009 2078 
Q 2669 388 3316 397 
Q 4013 403 4275 1750 
Q 4419 2500 4169 3500 
L 4788 3500 
Q 5075 2500 4934 1766 
Q 4578 -94 3278 -91 
Q 2428 -88 2503 844 
Q 2194 -91 1369 -91 
z
" transform="scale(0.015625)"/>
      </defs>
      <use xlink:href="#DejaVuSans-Oblique-3c9" transform="translate(0 0.3125)"/>
     </g>
    </g>
   </g>
   <g id="matplotlib.axis_2">
    <g id="ytick_1">
     <g id="line2d_14">
      <defs>
       <path id="m8ab4854498" d="M 0 0 
L -3.5 0 
" style="stroke: #000000; stroke-width: 0.8"/>
      </defs>
      <g>
       <use xlink:href="#m8ab4854498" x="55.55" y="242.44" style="stroke: #000000; stroke-width: 0.8"/>
      </g>
     </g>
     <g id="text_9">
      <!-- 0 -->
      <g transform="translate(41.55125 246.619141) scale(0.11 -0.11)">
       <use xlink:href="#DejaVuSans-30"/>
      </g>
     </g>
    </g>
    <g id="ytick_2">
     <g id="line2d_15">
      <g>
       <use xlink:href="#m8ab4854498" x="55.55" y="196.976" style="stroke: #000000; stroke-width: 0.8"/>
      </g>
     </g>
     <g id="text_10">
      <!-- 20 -->
      <g transform="translate(34.5525 201.155141) scale(0.11 -0.11)">
       <use xlink:href="#DejaVuSans-32"/>
       <use xlink:href="#DejaVuSans-30" x="63.623047"/>
      </g>
     </g>
    </g>
    <g id="ytick_3">
     <g id="line2d_16">
      <g>
       <use xlink:href="#m8ab4854498" x="55.55" y="151.512" style="stroke: #000000; stroke-width: 0.8"/>
      </g>
     </g>
     <g id="text_11">
      <!-- 40 -->
      <g transform="translate(34.5525 155.691141) scale(0.11 -0.11)">
       <use xlink:href="#DejaVuSans-34"/>
       <use xlink:href="#DejaVuSans-30" x="63.623047"/>
      </g>
     </g>
    </g>
    <g id="ytick_4">
     <g id="line2d_17">
      <g>
       <use xlink:href="#m8ab4854498" x="55.55" y="106.048" style="stroke: #000000; stroke-width: 0.8"/>
      </g>
     </g>
     <g id="text_12">
      <!-- 60 -->
      <g transform="translate(34.5525 110.227141) scale(0.11 -0.11)">
       <use xlink:href="#DejaVuSans-36"/>
       <use xlink:href="#DejaVuSans-30" x="63.623047"/>
      </g>
     </g>
    </g>
    <g id="ytick_5">
     <g id="line2d_18">
      <g>
       <use xlink:href="#m8ab4854498" x="55.55" y="60.584" style="stroke: #000000; stroke-width: 0.8"/>
      </g>
     </g>
     <g id="text_13">
      <!-- 80 -->
      <g transform="translate(34.5525 64.763141) scale(0.11 -0.11)">
       <use xlink:href="#DejaVuSans-38"/>
       <use xlink:href="#DejaVuSans-30" x="63.623047"/>
      </g>
     </g>
    </g>
    <g id="ytick_6">
     <g id="line2d_19">
      <g>
       <use xlink:href="#m8ab4854498" x="55.55" y="15.12" style="stroke: #000000; stroke-width: 0.8"/>
      </g>
     </g>
     <g id="text_14">
      <!-- 100 -->
      <g transform="translate(27.55375 19.299141) scale(0.11 -0.11)">
       <use xlink:href="#DejaVuSans-31"/>
       <use xlink:href="#DejaVuSans-30" x="63.623047"/>
       <use xlink:href="#DejaVuSans-30" x="127.246094"/>
      </g>
     </g>
    </g>
    <g id="text_15">
     <!-- Frequency -->
     <g transform="translate(21.058125 159.775625) rotate(-90) scale(0.12 -0.12)">
      <defs>
       <path id="DejaVuSans-46" d="M 628 4666 
L 3309 4666 
L 3309 4134 
L 1259 4134 
L 1259 2759 
L 3109 2759 
L 3109 2228 
L 1259 2228 
L 1259 0 
L 628 0 
L 628 4666 
z
" transform="scale(0.015625)"/>
       <path id="DejaVuSans-72" d="M 2631 2963 
Q 2534 3019 2420 3045 
Q 2306 3072 2169 3072 
Q 1681 3072 1420 2755 
Q 1159 2438 1159 1844 
L 1159 0 
L 581 0 
L 581 3500 
L 1159 3500 
L 1159 2956 
Q 1341 3275 1631 3429 
Q 1922 3584 2338 3584 
Q 2397 3584 2469 3576 
Q 2541 3569 2628 3553 
L 2631 2963 
z
" transform="scale(0.015625)"/>
       <path id="DejaVuSans-65" d="M 3597 1894 
L 3597 1613 
L 953 1613 
Q 991 1019 1311 708 
Q 1631 397 2203 397 
Q 2534 397 2845 478 
Q 3156 559 3463 722 
L 3463 178 
Q 3153 47 2828 -22 
Q 2503 -91 2169 -91 
Q 1331 -91 842 396 
Q 353 884 353 1716 
Q 353 2575 817 3079 
Q 1281 3584 2069 3584 
Q 2775 3584 3186 3129 
Q 3597 2675 3597 1894 
z
M 3022 2063 
Q 3016 2534 2758 2815 
Q 2500 3097 2075 3097 
Q 1594 3097 1305 2825 
Q 1016 2553 972 2059 
L 3022 2063 
z
" transform="scale(0.015625)"/>
       <path id="DejaVuSans-71" d="M 947 1747 
Q 947 1113 1208 752 
Q 1469 391 1925 391 
Q 2381 391 2643 752 
Q 2906 1113 2906 1747 
Q 2906 2381 2643 2742 
Q 2381 3103 1925 3103 
Q 1469 3103 1208 2742 
Q 947 2381 947 1747 
z
M 2906 525 
Q 2725 213 2448 61 
Q 2172 -91 1784 -91 
Q 1150 -91 751 415 
Q 353 922 353 1747 
Q 353 2572 751 3078 
Q 1150 3584 1784 3584 
Q 2172 3584 2448 3432 
Q 2725 3281 2906 2969 
L 2906 3500 
L 3481 3500 
L 3481 -1331 
L 2906 -1331 
L 2906 525 
z
" transform="scale(0.015625)"/>
       <path id="DejaVuSans-75" d="M 544 1381 
L 544 3500 
L 1119 3500 
L 1119 1403 
Q 1119 906 1312 657 
Q 1506 409 1894 409 
Q 2359 409 2629 706 
Q 2900 1003 2900 1516 
L 2900 3500 
L 3475 3500 
L 3475 0 
L 2900 0 
L 2900 538 
Q 2691 219 2414 64 
Q 2138 -91 1772 -91 
Q 1169 -91 856 284 
Q 544 659 544 1381 
z
M 1991 3584 
L 1991 3584 
z
" transform="scale(0.015625)"/>
       <path id="DejaVuSans-6e" d="M 3513 2113 
L 3513 0 
L 2938 0 
L 2938 2094 
Q 2938 2591 2744 2837 
Q 2550 3084 2163 3084 
Q 1697 3084 1428 2787 
Q 1159 2491 1159 1978 
L 1159 0 
L 581 0 
L 581 3500 
L 1159 3500 
L 1159 2956 
Q 1366 3272 1645 3428 
Q 1925 3584 2291 3584 
Q 2894 3584 3203 3211 
Q 3513 2838 3513 2113 
z
" transform="scale(0.015625)"/>
       <path id="DejaVuSans-63" d="M 3122 3366 
L 3122 2828 
Q 2878 2963 2633 3030 
Q 2388 3097 2138 3097 
Q 1578 3097 1268 2742 
Q 959 2388 959 1747 
Q 959 1106 1268 751 
Q 1578 397 2138 397 
Q 2388 397 2633 464 
Q 2878 531 3122 666 
L 3122 134 
Q 2881 22 2623 -34 
Q 2366 -91 2075 -91 
Q 1284 -91 818 406 
Q 353 903 353 1747 
Q 353 2603 823 3093 
Q 1294 3584 2113 3584 
Q 2378 3584 2631 3529 
Q 2884 3475 3122 3366 
z
" transform="scale(0.015625)"/>
       <path id="DejaVuSans-79" d="M 2059 -325 
Q 1816 -950 1584 -1140 
Q 1353 -1331 966 -1331 
L 506 -1331 
L 506 -850 
L 844 -850 
Q 1081 -850 1212 -737 
Q 1344 -625 1503 -206 
L 1606 56 
L 191 3500 
L 800 3500 
L 1894 763 
L 2988 3500 
L 3597 3500 
L 2059 -325 
z
" transform="scale(0.015625)"/>
      </defs>
      <use xlink:href="#DejaVuSans-46"/>
      <use xlink:href="#DejaVuSans-72" x="50.269531"/>
      <use xlink:href="#DejaVuSans-65" x="89.132812"/>
      <use xlink:href="#DejaVuSans-71" x="150.65625"/>
      <use xlink:href="#DejaVuSans-75" x="214.132812"/>
      <use xlink:href="#DejaVuSans-65" x="277.511719"/>
      <use xlink:href="#DejaVuSans-6e" x="339.035156"/>
      <use xlink:href="#DejaVuSans-63" x="402.414062"/>
      <use xlink:href="#DejaVuSans-79" x="457.394531"/>
     </g>
    </g>
   </g>
   <g id="line2d_20">
    <path d="M 71.936111 226.325731 
L 83.425107 214.501732 
L 85.33994 212.8943 
L 87.254773 211.511613 
L 89.169606 210.392401 
L 91.084439 209.568564 
L 92.999271 209.063587 
L 94.914104 208.891347 
L 96.828937 209.055399 
L 98.74377 209.548794 
L 100.658602 210.354442 
L 102.573435 211.446 
L 104.488268 212.789213 
L 107.360517 215.186158 
L 110.232766 217.904975 
L 120.764347 228.206585 
L 123.636596 230.591436 
L 126.508845 232.666932 
L 129.381094 234.41683 
L 132.253343 235.84939 
L 135.125593 236.990774 
L 137.997842 237.878238 
L 140.870091 238.554004 
L 144.699756 239.198296 
L 149.486838 239.713893 
L 155.231337 240.073694 
L 161.933252 240.275605 
L 167.67775 240.252245 
L 172.464832 239.995339 
L 176.294497 239.531941 
L 179.166747 238.967569 
L 182.038996 238.160105 
L 184.911245 237.052657 
L 186.826078 236.118748 
L 188.740911 235.008652 
L 190.655743 233.706944 
L 192.570576 232.20049 
L 194.485409 230.479474 
L 196.400242 228.538489 
L 199.272491 225.216562 
L 202.14474 221.430499 
L 205.016989 217.248888 
L 208.846655 211.25727 
L 214.591153 202.19065 
L 217.463402 198.071037 
L 219.378235 195.628229 
L 221.293068 193.501062 
L 223.207901 191.745108 
L 225.122733 190.407108 
L 227.037566 189.522804 
L 227.994983 189.258527 
L 228.952399 189.115269 
L 229.909815 189.093761 
L 230.867232 189.193846 
L 231.824648 189.414486 
L 233.739481 190.208981 
L 235.654314 191.452198 
L 237.569146 193.107098 
L 239.483979 195.126541 
L 241.398812 197.455587 
L 244.271061 201.397222 
L 248.100727 207.159857 
L 254.802642 217.344752 
L 257.674891 221.350335 
L 260.54714 224.994806 
L 262.461973 227.197571 
L 262.461973 227.197571 
" clip-path="url(#p8815ab7af4)" style="fill: none; stroke: #4be4aa; stroke-width: 1.5; stroke-linecap: square"/>
   </g>
   <g id="line2d_21">
    <path d="M 80.153773 240.371126 
L 85.353907 240.203477 
L 90.15403 240.263936 
L 95.754174 240.567372 
L 114.154648 241.788117 
L 120.554813 241.865707 
L 130.95508 241.722714 
L 141.355348 241.660891 
L 152.155626 241.849233 
L 159.755822 242.034201 
L 159.755822 242.034201 
" clip-path="url(#p8815ab7af4)" style="fill: none; stroke: #ffb000; stroke-width: 1.5; stroke-linecap: square"/>
   </g>
   <g id="patch_147">
    <path d="M 55.55 242.44 
L 55.55 15.12 
" style="fill: none; stroke: #000000; stroke-width: 0.8; stroke-linejoin: miter; stroke-linecap: square"/>
   </g>
   <g id="patch_148">
    <path d="M 266.715 242.44 
L 266.715 15.12 
" style="fill: none; stroke: #000000; stroke-width: 0.8; stroke-linejoin: miter; stroke-linecap: square"/>
   </g>
   <g id="patch_149">
    <path d="M 55.55 242.44 
L 266.715 242.44 
" style="fill: none; stroke: #000000; stroke-width: 0.8; stroke-linejoin: miter; stroke-linecap: square"/>
   </g>
   <g id="patch_150">
    <path d="M 55.55 15.12 
L 266.715 15.12 
" style="fill: none; stroke: #000000; stroke-width: 0.8; stroke-linejoin: miter; stroke-linecap: square"/>
   </g>
  </g>
  <g id="legend_1">
   <g id="patch_151">
    <path d="M 133.347813 66.434375 
L 260.84 66.434375 
Q 262.84 66.434375 262.84 64.434375 
L 262.84 21.4 
Q 262.84 19.4 260.84 19.4 
L 133.347813 19.4 
Q 131.347813 19.4 131.347813 21.4 
L 131.347813 64.434375 
Q 131.347813 66.434375 133.347813 66.434375 
z
" style="fill: #ffffff; opacity: 0.8; stroke: #cccccc; stroke-linejoin: miter"/>
   </g>
   <g id="patch_152">
    <path d="M 135.347813 30.998438 
L 155.347813 30.998438 
L 155.347813 23.998438 
L 135.347813 23.998438 
z
" style="fill: #4be4aa; fill-opacity: 0.5; stroke: #000000; stroke-width: 0.281818; stroke-linejoin: miter"/>
   </g>
   <g id="text_16">
    <!-- 1-6 (n = 668) -->
    <g transform="translate(163.347813 30.998438) scale(0.1 -0.1)">
     <defs>
      <path id="DejaVuSans-3b1" d="M 2644 1628 
L 2506 2350 
Q 2366 3091 1809 3091 
Q 1391 3091 1200 2747 
Q 959 2316 959 1747 
Q 959 1059 1194 731 
Q 1431 397 1809 397 
Q 2228 397 2453 1063 
L 2644 1628 
z
M 2966 2584 
L 3275 3500 
L 3788 3500 
L 3147 1603 
L 3272 919 
Q 3300 766 3409 638 
Q 3538 488 3638 488 
L 3913 488 
L 3913 0 
L 3569 0 
Q 3275 0 3013 263 
Q 2884 394 2831 669 
Q 2688 322 2394 50 
Q 2256 -78 1809 -78 
Q 1075 -78 719 397 
Q 353 888 353 1747 
Q 353 2666 750 3097 
Q 1191 3578 1809 3578 
Q 2781 3578 2966 2584 
z
" transform="scale(0.015625)"/>
      <path id="DejaVuSans-2d" d="M 313 2009 
L 1997 2009 
L 1997 1497 
L 313 1497 
L 313 2009 
z
" transform="scale(0.015625)"/>
      <path id="DejaVuSans-20" transform="scale(0.015625)"/>
      <path id="DejaVuSans-28" d="M 1984 4856 
Q 1566 4138 1362 3434 
Q 1159 2731 1159 2009 
Q 1159 1288 1364 580 
Q 1569 -128 1984 -844 
L 1484 -844 
Q 1016 -109 783 600 
Q 550 1309 550 2009 
Q 550 2706 781 3412 
Q 1013 4119 1484 4856 
L 1984 4856 
z
" transform="scale(0.015625)"/>
      <path id="DejaVuSans-3d" d="M 678 2906 
L 4684 2906 
L 4684 2381 
L 678 2381 
L 678 2906 
z
M 678 1631 
L 4684 1631 
L 4684 1100 
L 678 1100 
L 678 1631 
z
" transform="scale(0.015625)"/>
      <path id="DejaVuSans-29" d="M 513 4856 
L 1013 4856 
Q 1481 4119 1714 3412 
Q 1947 2706 1947 2009 
Q 1947 1309 1714 600 
Q 1481 -109 1013 -844 
L 513 -844 
Q 928 -128 1133 580 
Q 1338 1288 1338 2009 
Q 1338 2731 1133 3434 
Q 928 4138 513 4856 
z
" transform="scale(0.015625)"/>
     </defs>
     <use xlink:href="#DejaVuSans-3b1"/>
     <use xlink:href="#DejaVuSans-31" x="65.917969"/>
     <use xlink:href="#DejaVuSans-2d" x="129.541016"/>
     <use xlink:href="#DejaVuSans-36" x="165.625"/>
     <use xlink:href="#DejaVuSans-20" x="229.248047"/>
     <use xlink:href="#DejaVuSans-28" x="261.035156"/>
     <use xlink:href="#DejaVuSans-6e" x="300.048828"/>
     <use xlink:href="#DejaVuSans-20" x="363.427734"/>
     <use xlink:href="#DejaVuSans-3d" x="395.214844"/>
     <use xlink:href="#DejaVuSans-20" x="479.003906"/>
     <use xlink:href="#DejaVuSans-36" x="510.791016"/>
     <use xlink:href="#DejaVuSans-36" x="574.414062"/>
     <use xlink:href="#DejaVuSans-38" x="638.037109"/>
     <use xlink:href="#DejaVuSans-29" x="701.660156"/>
    </g>
   </g>
   <g id="patch_153">
    <path d="M 135.347813 45.676563 
L 155.347813 45.676563 
L 155.347813 38.676563 
L 135.347813 38.676563 
z
" style="fill: #ffb000; fill-opacity: 0.5; stroke: #000000; stroke-width: 0.281818; stroke-linejoin: miter"/>
   </g>
   <g id="text_17">
    <!-- 2-6 (n = 18) -->
    <g transform="translate(163.347813 45.676563) scale(0.1 -0.1)">
     <use xlink:href="#DejaVuSans-3b1"/>
     <use xlink:href="#DejaVuSans-32" x="65.917969"/>
     <use xlink:href="#DejaVuSans-2d" x="129.541016"/>
     <use xlink:href="#DejaVuSans-36" x="165.625"/>
     <use xlink:href="#DejaVuSans-20" x="229.248047"/>
     <use xlink:href="#DejaVuSans-28" x="261.035156"/>
     <use xlink:href="#DejaVuSans-6e" x="300.048828"/>
     <use xlink:href="#DejaVuSans-20" x="363.427734"/>
     <use xlink:href="#DejaVuSans-3d" x="395.214844"/>
     <use xlink:href="#DejaVuSans-20" x="479.003906"/>
     <use xlink:href="#DejaVuSans-31" x="510.791016"/>
     <use xlink:href="#DejaVuSans-38" x="574.414062"/>
     <use xlink:href="#DejaVuSans-29" x="638.037109"/>
    </g>
   </g>
   <g id="PathCollection_2">
    <defs>
     <path id="mfd5c8bca1e" d="M -5 0 
L 5 0 
M 0 5 
L 0 -5 
" style="stroke: #000000"/>
    </defs>
    <g>
     <use xlink:href="#mfd5c8bca1e" x="145.347813" y="57.729688" style="stroke: #000000"/>
    </g>
   </g>
   <g id="text_18">
    <!-- Predicted structure -->
    <g transform="translate(163.347813 60.354688) scale(0.1 -0.1)">
     <defs>
      <path id="DejaVuSans-50" d="M 1259 4147 
L 1259 2394 
L 2053 2394 
Q 2494 2394 2734 2622 
Q 2975 2850 2975 3272 
Q 2975 3691 2734 3919 
Q 2494 4147 2053 4147 
L 1259 4147 
z
M 628 4666 
L 2053 4666 
Q 2838 4666 3239 4311 
Q 3641 3956 3641 3272 
Q 3641 2581 3239 2228 
Q 2838 1875 2053 1875 
L 1259 1875 
L 1259 0 
L 628 0 
L 628 4666 
z
" transform="scale(0.015625)"/>
      <path id="DejaVuSans-64" d="M 2906 2969 
L 2906 4863 
L 3481 4863 
L 3481 0 
L 2906 0 
L 2906 525 
Q 2725 213 2448 61 
Q 2172 -91 1784 -91 
Q 1150 -91 751 415 
Q 353 922 353 1747 
Q 353 2572 751 3078 
Q 1150 3584 1784 3584 
Q 2172 3584 2448 3432 
Q 2725 3281 2906 2969 
z
M 947 1747 
Q 947 1113 1208 752 
Q 1469 391 1925 391 
Q 2381 391 2643 752 
Q 2906 1113 2906 1747 
Q 2906 2381 2643 2742 
Q 2381 3103 1925 3103 
Q 1469 3103 1208 2742 
Q 947 2381 947 1747 
z
" transform="scale(0.015625)"/>
      <path id="DejaVuSans-69" d="M 603 3500 
L 1178 3500 
L 1178 0 
L 603 0 
L 603 3500 
z
M 603 4863 
L 1178 4863 
L 1178 4134 
L 603 4134 
L 603 4863 
z
" transform="scale(0.015625)"/>
      <path id="DejaVuSans-74" d="M 1172 4494 
L 1172 3500 
L 2356 3500 
L 2356 3053 
L 1172 3053 
L 1172 1153 
Q 1172 725 1289 603 
Q 1406 481 1766 481 
L 2356 481 
L 2356 0 
L 1766 0 
Q 1100 0 847 248 
Q 594 497 594 1153 
L 594 3053 
L 172 3053 
L 172 3500 
L 594 3500 
L 594 4494 
L 1172 4494 
z
" transform="scale(0.015625)"/>
      <path id="DejaVuSans-73" d="M 2834 3397 
L 2834 2853 
Q 2591 2978 2328 3040 
Q 2066 3103 1784 3103 
Q 1356 3103 1142 2972 
Q 928 2841 928 2578 
Q 928 2378 1081 2264 
Q 1234 2150 1697 2047 
L 1894 2003 
Q 2506 1872 2764 1633 
Q 3022 1394 3022 966 
Q 3022 478 2636 193 
Q 2250 -91 1575 -91 
Q 1294 -91 989 -36 
Q 684 19 347 128 
L 347 722 
Q 666 556 975 473 
Q 1284 391 1588 391 
Q 1994 391 2212 530 
Q 2431 669 2431 922 
Q 2431 1156 2273 1281 
Q 2116 1406 1581 1522 
L 1381 1569 
Q 847 1681 609 1914 
Q 372 2147 372 2553 
Q 372 3047 722 3315 
Q 1072 3584 1716 3584 
Q 2034 3584 2315 3537 
Q 2597 3491 2834 3397 
z
" transform="scale(0.015625)"/>
     </defs>
     <use xlink:href="#DejaVuSans-50"/>
     <use xlink:href="#DejaVuSans-72" x="58.552734"/>
     <use xlink:href="#DejaVuSans-65" x="97.416016"/>
     <use xlink:href="#DejaVuSans-64" x="158.939453"/>
     <use xlink:href="#DejaVuSans-69" x="222.416016"/>
     <use xlink:href="#DejaVuSans-63" x="250.199219"/>
     <use xlink:href="#DejaVuSans-74" x="305.179688"/>
     <use xlink:href="#DejaVuSans-65" x="344.388672"/>
     <use xlink:href="#DejaVuSans-64" x="405.912109"/>
     <use xlink:href="#DejaVuSans-20" x="469.388672"/>
     <use xlink:href="#DejaVuSans-73" x="501.175781"/>
     <use xlink:href="#DejaVuSans-74" x="553.275391"/>
     <use xlink:href="#DejaVuSans-72" x="592.484375"/>
     <use xlink:href="#DejaVuSans-75" x="633.597656"/>
     <use xlink:href="#DejaVuSans-63" x="696.976562"/>
     <use xlink:href="#DejaVuSans-74" x="751.957031"/>
     <use xlink:href="#DejaVuSans-75" x="791.166016"/>
     <use xlink:href="#DejaVuSans-72" x="854.544922"/>
     <use xlink:href="#DejaVuSans-65" x="893.408203"/>
    </g>
   </g>
  </g>
 </g>
 <defs>
  <clipPath id="p8815ab7af4">
   <rect x="55.55" y="15.12" width="211.165" height="227.32"/>
  </clipPath>
 </defs>
</svg>
